STARTFONT 2.1
FONT -B&H-Lucida Bright-Medium-I-Normal--8-80-72-72-P-45-ISO8859-1
SIZE 8 72 72
FONTBOUNDINGBOX 13 10 -4 -2

STARTPROPERTIES 22
FONTNAME_REGISTRY "-"
FOUNDRY "B&H"
FAMILY_NAME "Lucida Bright"
WEIGHT_NAME "Medium"
SLANT "I"
SETWIDTH_NAME "Normal"
ADD_STYLE_NAME ""
PIXEL_SIZE 8
POINT_SIZE 80
RESOLUTION_X 72
RESOLUTION_Y 72
SPACING "P"
CHARSET_REGISTRY "ISO8859"
CHARSET_ENCODING "1"
FULL_NAME "LucidaBright-Italic"
AVERAGE_WIDTH 45
WEIGHT 10
X_HEIGHT 4
QUAD_WIDTH 5
DEFAULT_CHAR 32
FONT_DESCENT 2
FONT_ASCENT 8
ENDPROPERTIES

CHARS 190

STARTCHAR space
ENCODING 32
SWIDTH 333 0
DWIDTH 3 0
BBX 1 1 0 0
BITMAP
00
ENDCHAR

STARTCHAR exclam
ENCODING 33
SWIDTH 265 0
DWIDTH 2 0
BBX 2 6 1 0
BITMAP
40
40
40
80
00
80
ENDCHAR

STARTCHAR quotedbl
ENCODING 34
SWIDTH 377 0
DWIDTH 3 0
BBX 2 2 2 4
BITMAP
C0
C0
ENDCHAR

STARTCHAR numbersign
ENCODING 35
SWIDTH 608 0
DWIDTH 5 0
BBX 5 6 1 0
BITMAP
50
50
F8
50
F8
50
ENDCHAR

STARTCHAR dollar
ENCODING 36
SWIDTH 608 0
DWIDTH 5 0
BBX 4 6 1 0
BITMAP
70
50
40
60
E0
E0
ENDCHAR

STARTCHAR percent
ENCODING 37
SWIDTH 759 0
DWIDTH 6 0
BBX 6 6 1 0
BITMAP
E4
A8
F0
3C
54
9C
ENDCHAR

STARTCHAR ampersand
ENCODING 38
SWIDTH 727 0
DWIDTH 6 0
BBX 6 6 1 0
BITMAP
30
30
6C
A8
90
F8
ENDCHAR

STARTCHAR quoteright
ENCODING 39
SWIDTH 265 0
DWIDTH 2 0
BBX 1 3 1 3
BITMAP
80
80
80
ENDCHAR

STARTCHAR parenleft
ENCODING 40
SWIDTH 310 0
DWIDTH 2 0
BBX 3 8 1 -2
BITMAP
20
40
80
80
80
80
80
80
ENDCHAR

STARTCHAR parenright
ENCODING 41
SWIDTH 310 0
DWIDTH 2 0
BBX 3 8 0 -2
BITMAP
20
20
20
20
20
40
40
80
ENDCHAR

STARTCHAR asterisk
ENCODING 42
SWIDTH 458 0
DWIDTH 4 0
BBX 3 3 1 3
BITMAP
40
E0
A0
ENDCHAR

STARTCHAR plus
ENCODING 43
SWIDTH 608 0
DWIDTH 5 0
BBX 5 5 1 0
BITMAP
20
20
F8
40
40
ENDCHAR

STARTCHAR comma
ENCODING 44
SWIDTH 265 0
DWIDTH 2 0
BBX 1 3 0 -2
BITMAP
80
80
80
ENDCHAR

STARTCHAR minus
ENCODING 45
SWIDTH 608 0
DWIDTH 5 0
BBX 5 1 1 2
BITMAP
F8
ENDCHAR

STARTCHAR period
ENCODING 46
SWIDTH 265 0
DWIDTH 2 0
BBX 1 1 1 0
BITMAP
80
ENDCHAR

STARTCHAR slash
ENCODING 47
SWIDTH 458 0
DWIDTH 4 0
BBX 5 8 0 -2
BITMAP
08
18
10
20
20
40
40
80
ENDCHAR

STARTCHAR zero
ENCODING 48
SWIDTH 608 0
DWIDTH 5 0
BBX 4 6 1 0
BITMAP
70
50
90
90
90
E0
ENDCHAR

STARTCHAR one
ENCODING 49
SWIDTH 608 0
DWIDTH 5 0
BBX 3 6 1 0
BITMAP
60
20
40
40
40
E0
ENDCHAR

STARTCHAR two
ENCODING 50
SWIDTH 608 0
DWIDTH 5 0
BBX 4 6 1 0
BITMAP
70
50
10
30
40
F0
ENDCHAR

STARTCHAR three
ENCODING 51
SWIDTH 608 0
DWIDTH 5 0
BBX 4 6 1 0
BITMAP
70
30
60
10
20
E0
ENDCHAR

STARTCHAR four
ENCODING 52
SWIDTH 608 0
DWIDTH 5 0
BBX 4 6 1 0
BITMAP
10
30
70
50
F0
30
ENDCHAR

STARTCHAR five
ENCODING 53
SWIDTH 608 0
DWIDTH 5 0
BBX 4 6 1 0
BITMAP
70
40
60
10
90
E0
ENDCHAR

STARTCHAR six
ENCODING 54
SWIDTH 608 0
DWIDTH 5 0
BBX 4 6 1 0
BITMAP
30
40
F0
90
90
E0
ENDCHAR

STARTCHAR seven
ENCODING 55
SWIDTH 608 0
DWIDTH 5 0
BBX 4 6 1 0
BITMAP
70
10
20
40
C0
80
ENDCHAR

STARTCHAR eight
ENCODING 56
SWIDTH 608 0
DWIDTH 5 0
BBX 4 6 1 0
BITMAP
70
50
70
90
90
E0
ENDCHAR

STARTCHAR nine
ENCODING 57
SWIDTH 608 0
DWIDTH 5 0
BBX 4 6 1 0
BITMAP
70
50
90
70
B0
E0
ENDCHAR

STARTCHAR colon
ENCODING 58
SWIDTH 265 0
DWIDTH 2 0
BBX 2 4 1 0
BITMAP
40
00
00
80
ENDCHAR

STARTCHAR semicolon
ENCODING 59
SWIDTH 265 0
DWIDTH 2 0
BBX 2 6 0 -2
BITMAP
40
00
00
80
80
80
ENDCHAR

STARTCHAR less
ENCODING 60
SWIDTH 608 0
DWIDTH 5 0
BBX 6 4 2 0
BITMAP
0C
F0
70
18
ENDCHAR

STARTCHAR equal
ENCODING 61
SWIDTH 608 0
DWIDTH 5 0
BBX 5 2 0 1
BITMAP
F8
F8
ENDCHAR

STARTCHAR greater
ENCODING 62
SWIDTH 608 0
DWIDTH 5 0
BBX 6 4 0 0
BITMAP
60
38
3C
C0
ENDCHAR

STARTCHAR question
ENCODING 63
SWIDTH 471 0
DWIDTH 4 0
BBX 3 6 1 0
BITMAP
E0
A0
60
80
00
80
ENDCHAR

STARTCHAR at
ENCODING 64
SWIDTH 861 0
DWIDTH 7 0
BBX 6 6 1 0
BITMAP
38
44
BC
B4
AC
70
ENDCHAR

STARTCHAR A
ENCODING 65
SWIDTH 747 0
DWIDTH 6 0
BBX 6 6 0 0
BITMAP
10
18
28
68
78
CC
ENDCHAR

STARTCHAR B
ENCODING 66
SWIDTH 606 0
DWIDTH 5 0
BBX 5 6 0 0
BITMAP
78
48
70
48
50
F0
ENDCHAR

STARTCHAR C
ENCODING 67
SWIDTH 714 0
DWIDTH 6 0
BBX 5 6 1 0
BITMAP
38
48
80
80
80
70
ENDCHAR

STARTCHAR D
ENCODING 68
SWIDTH 770 0
DWIDTH 6 0
BBX 6 6 0 0
BITMAP
7C
44
44
44
4C
F8
ENDCHAR

STARTCHAR E
ENCODING 69
SWIDTH 569 0
DWIDTH 5 0
BBX 5 6 0 0
BITMAP
78
40
70
40
40
F0
ENDCHAR

STARTCHAR F
ENCODING 70
SWIDTH 551 0
DWIDTH 4 0
BBX 5 6 0 0
BITMAP
78
40
70
40
40
C0
ENDCHAR

STARTCHAR G
ENCODING 71
SWIDTH 756 0
DWIDTH 6 0
BBX 5 6 1 0
BITMAP
38
48
80
98
88
70
ENDCHAR

STARTCHAR H
ENCODING 72
SWIDTH 776 0
DWIDTH 6 0
BBX 7 6 0 0
BITMAP
66
44
7C
44
48
CC
ENDCHAR

STARTCHAR I
ENCODING 73
SWIDTH 325 0
DWIDTH 3 0
BBX 3 6 0 0
BITMAP
60
20
40
40
40
C0
ENDCHAR

STARTCHAR J
ENCODING 74
SWIDTH 422 0
DWIDTH 3 0
BBX 5 8 0 -2
BITMAP
38
10
20
20
20
20
A0
C0
ENDCHAR

STARTCHAR K
ENCODING 75
SWIDTH 698 0
DWIDTH 6 0
BBX 6 6 0 0
BITMAP
6C
24
48
70
48
CC
ENDCHAR

STARTCHAR L
ENCODING 76
SWIDTH 572 0
DWIDTH 5 0
BBX 4 6 0 0
BITMAP
60
20
40
40
50
F0
ENDCHAR

STARTCHAR M
ENCODING 77
SWIDTH 865 0
DWIDTH 7 0
BBX 8 6 0 0
BITMAP
E7
66
6E
5A
5A
C3
ENDCHAR

STARTCHAR N
ENCODING 78
SWIDTH 762 0
DWIDTH 6 0
BBX 7 6 0 0
BITMAP
66
24
54
54
48
C8
ENDCHAR

STARTCHAR O
ENCODING 79
SWIDTH 783 0
DWIDTH 6 0
BBX 6 6 1 0
BITMAP
38
44
84
84
88
70
ENDCHAR

STARTCHAR P
ENCODING 80
SWIDTH 579 0
DWIDTH 5 0
BBX 5 6 0 0
BITMAP
78
48
48
70
40
C0
ENDCHAR

STARTCHAR Q
ENCODING 81
SWIDTH 788 0
DWIDTH 6 0
BBX 6 8 1 -2
BITMAP
38
4C
84
88
88
70
20
1C
ENDCHAR

STARTCHAR R
ENCODING 82
SWIDTH 686 0
DWIDTH 5 0
BBX 5 6 0 0
BITMAP
78
48
70
50
58
C8
ENDCHAR

STARTCHAR S
ENCODING 83
SWIDTH 549 0
DWIDTH 4 0
BBX 5 6 0 0
BITMAP
78
50
60
30
90
E0
ENDCHAR

STARTCHAR T
ENCODING 84
SWIDTH 663 0
DWIDTH 5 0
BBX 5 6 1 0
BITMAP
F8
A8
20
20
40
E0
ENDCHAR

STARTCHAR U
ENCODING 85
SWIDTH 727 0
DWIDTH 6 0
BBX 6 6 1 0
BITMAP
CC
48
88
88
90
E0
ENDCHAR

STARTCHAR V
ENCODING 86
SWIDTH 656 0
DWIDTH 5 0
BBX 6 6 1 0
BITMAP
CC
88
48
50
60
60
ENDCHAR

STARTCHAR W
ENCODING 87
SWIDTH 878 0
DWIDTH 7 0
BBX 7 6 1 0
BITMAP
D2
52
72
74
54
48
ENDCHAR

STARTCHAR X
ENCODING 88
SWIDTH 624 0
DWIDTH 5 0
BBX 6 6 0 0
BITMAP
64
24
18
30
48
D8
ENDCHAR

STARTCHAR Y
ENCODING 89
SWIDTH 663 0
DWIDTH 5 0
BBX 5 6 1 0
BITMAP
C8
50
60
40
40
E0
ENDCHAR

STARTCHAR Z
ENCODING 90
SWIDTH 633 0
DWIDTH 5 0
BBX 5 6 0 0
BITMAP
78
50
20
40
50
F0
ENDCHAR

STARTCHAR bracketleft
ENCODING 91
SWIDTH 310 0
DWIDTH 2 0
BBX 3 8 0 -2
BITMAP
60
40
40
40
40
80
80
C0
ENDCHAR

STARTCHAR backslash
ENCODING 92
SWIDTH 458 0
DWIDTH 4 0
BBX 2 8 1 -2
BITMAP
80
80
80
C0
40
40
40
40
ENDCHAR

STARTCHAR bracketright
ENCODING 93
SWIDTH 310 0
DWIDTH 2 0
BBX 3 8 0 -2
BITMAP
60
20
20
40
40
40
40
C0
ENDCHAR

STARTCHAR asciicircum
ENCODING 94
SWIDTH 608 0
DWIDTH 5 0
BBX 5 6 0 1
BITMAP
10
10
30
50
58
88
ENDCHAR

STARTCHAR underscore
ENCODING 95
SWIDTH 500 0
DWIDTH 4 0
BBX 3 1 0 -1
BITMAP
E0
ENDCHAR

STARTCHAR quoteleft
ENCODING 96
SWIDTH 265 0
DWIDTH 2 0
BBX 1 3 1 3
BITMAP
80
80
80
ENDCHAR

STARTCHAR a
ENCODING 97
SWIDTH 608 0
DWIDTH 5 0
BBX 4 4 1 0
BITMAP
70
90
B0
D0
ENDCHAR

STARTCHAR b
ENCODING 98
SWIDTH 596 0
DWIDTH 5 0
BBX 4 7 1 0
BITMAP
C0
40
40
70
50
90
E0
ENDCHAR

STARTCHAR c
ENCODING 99
SWIDTH 487 0
DWIDTH 4 0
BBX 4 4 1 0
BITMAP
70
A0
80
E0
ENDCHAR

STARTCHAR d
ENCODING 100
SWIDTH 608 0
DWIDTH 5 0
BBX 5 7 1 0
BITMAP
18
10
10
70
90
B0
D0
ENDCHAR

STARTCHAR e
ENCODING 101
SWIDTH 518 0
DWIDTH 4 0
BBX 4 4 1 0
BITMAP
60
A0
F0
E0
ENDCHAR

STARTCHAR f
ENCODING 102
SWIDTH 380 0
DWIDTH 3 0
BBX 4 9 1 -2
BITMAP
30
50
40
60
40
40
40
80
80
ENDCHAR

STARTCHAR g
ENCODING 103
SWIDTH 602 0
DWIDTH 5 0
BBX 5 6 0 -2
BITMAP
38
50
B0
F0
90
E0
ENDCHAR

STARTCHAR h
ENCODING 104
SWIDTH 631 0
DWIDTH 5 0
BBX 4 7 1 0
BITMAP
C0
40
40
70
D0
D0
90
ENDCHAR

STARTCHAR i
ENCODING 105
SWIDTH 289 0
DWIDTH 2 0
BBX 2 7 1 0
BITMAP
40
00
00
C0
80
80
C0
ENDCHAR

STARTCHAR j
ENCODING 106
SWIDTH 343 0
DWIDTH 3 0
BBX 4 9 0 -2
BITMAP
10
00
00
30
20
20
20
A0
C0
ENDCHAR

STARTCHAR k
ENCODING 107
SWIDTH 560 0
DWIDTH 4 0
BBX 4 7 1 0
BITMAP
C0
40
40
50
A0
E0
B0
ENDCHAR

STARTCHAR l
ENCODING 108
SWIDTH 289 0
DWIDTH 2 0
BBX 2 7 1 0
BITMAP
C0
40
40
80
80
80
C0
ENDCHAR

STARTCHAR m
ENCODING 109
SWIDTH 944 0
DWIDTH 8 0
BBX 7 4 1 0
BITMAP
F6
5C
D4
96
ENDCHAR

STARTCHAR n
ENCODING 110
SWIDTH 631 0
DWIDTH 5 0
BBX 4 4 1 0
BITMAP
F0
50
D0
90
ENDCHAR

STARTCHAR o
ENCODING 111
SWIDTH 560 0
DWIDTH 4 0
BBX 4 4 1 0
BITMAP
70
90
90
E0
ENDCHAR

STARTCHAR p
ENCODING 112
SWIDTH 608 0
DWIDTH 5 0
BBX 5 6 1 -2
BITMAP
F8
68
50
60
80
80
ENDCHAR

STARTCHAR q
ENCODING 113
SWIDTH 599 0
DWIDTH 5 0
BBX 4 6 1 -2
BITMAP
70
90
B0
D0
20
20
ENDCHAR

STARTCHAR r
ENCODING 114
SWIDTH 470 0
DWIDTH 4 0
BBX 4 4 1 0
BITMAP
F0
40
C0
80
ENDCHAR

STARTCHAR s
ENCODING 115
SWIDTH 440 0
DWIDTH 4 0
BBX 3 4 0 0
BITMAP
60
60
A0
E0
ENDCHAR

STARTCHAR t
ENCODING 116
SWIDTH 355 0
DWIDTH 3 0
BBX 3 5 1 0
BITMAP
40
E0
80
80
C0
ENDCHAR

STARTCHAR u
ENCODING 117
SWIDTH 630 0
DWIDTH 5 0
BBX 4 4 1 0
BITMAP
D0
90
B0
D0
ENDCHAR

STARTCHAR v
ENCODING 118
SWIDTH 558 0
DWIDTH 4 0
BBX 5 4 0 0
BITMAP
C8
50
60
40
ENDCHAR

STARTCHAR w
ENCODING 119
SWIDTH 805 0
DWIDTH 6 0
BBX 6 4 1 0
BITMAP
94
74
78
50
ENDCHAR

STARTCHAR x
ENCODING 120
SWIDTH 510 0
DWIDTH 4 0
BBX 4 4 0 0
BITMAP
D0
60
60
90
ENDCHAR

STARTCHAR y
ENCODING 121
SWIDTH 558 0
DWIDTH 4 0
BBX 6 6 1 -2
BITMAP
64
24
18
10
30
E0
ENDCHAR

STARTCHAR z
ENCODING 122
SWIDTH 536 0
DWIDTH 4 0
BBX 4 4 0 0
BITMAP
70
60
50
F0
ENDCHAR

STARTCHAR braceleft
ENCODING 123
SWIDTH 337 0
DWIDTH 3 0
BBX 3 8 1 -2
BITMAP
20
40
40
40
80
80
80
80
ENDCHAR

STARTCHAR bar
ENCODING 124
SWIDTH 241 0
DWIDTH 2 0
BBX 2 8 0 -2
BITMAP
40
40
40
80
80
80
80
80
ENDCHAR

STARTCHAR braceright
ENCODING 125
SWIDTH 337 0
DWIDTH 3 0
BBX 3 8 1 -2
BITMAP
60
20
20
60
40
40
40
80
ENDCHAR

STARTCHAR asciitilde
ENCODING 126
SWIDTH 608 0
DWIDTH 5 0
BBX 5 2 0 2
BITMAP
E8
B8
ENDCHAR

STARTCHAR exclamdown
ENCODING 161
SWIDTH 265 0
DWIDTH 2 0
BBX 2 6 0 -2
BITMAP
40
00
80
80
80
80
ENDCHAR

STARTCHAR cent
ENCODING 162
SWIDTH 608 0
DWIDTH 5 0
BBX 4 6 1 0
BITMAP
20
70
B0
A0
E0
40
ENDCHAR

STARTCHAR sterling
ENCODING 163
SWIDTH 608 0
DWIDTH 5 0
BBX 4 6 1 0
BITMAP
30
30
60
40
40
E0
ENDCHAR

STARTCHAR currency
ENCODING 164
SWIDTH 608 0
DWIDTH 5 0
BBX 6 5 0 0
BITMAP
4C
70
50
70
88
ENDCHAR

STARTCHAR yen
ENCODING 165
SWIDTH 608 0
DWIDTH 5 0
BBX 5 6 1 0
BITMAP
C8
D8
50
F0
E0
E0
ENDCHAR

STARTCHAR brokenbar
ENCODING 166
SWIDTH 241 0
DWIDTH 2 0
BBX 2 8 0 -2
BITMAP
40
40
40
40
00
80
80
80
ENDCHAR

STARTCHAR section
ENCODING 167
SWIDTH 608 0
DWIDTH 5 0
BBX 4 8 1 -2
BITMAP
30
50
40
70
70
20
90
E0
ENDCHAR

STARTCHAR dieresis
ENCODING 168
SWIDTH 560 0
DWIDTH 4 0
BBX 3 1 2 5
BITMAP
A0
ENDCHAR

STARTCHAR copyright
ENCODING 169
SWIDTH 843 0
DWIDTH 7 0
BBX 6 6 1 0
BITMAP
78
84
BC
D4
B4
78
ENDCHAR

STARTCHAR ordfeminine
ENCODING 170
SWIDTH 458 0
DWIDTH 4 0
BBX 3 3 1 3
BITMAP
60
E0
E0
ENDCHAR

STARTCHAR guillemotleft
ENCODING 171
SWIDTH 525 0
DWIDTH 4 0
BBX 4 4 1 0
BITMAP
50
E0
A0
A0
ENDCHAR

STARTCHAR logicalnot
ENCODING 172
SWIDTH 608 0
DWIDTH 5 0
BBX 5 2 1 1
BITMAP
F8
10
ENDCHAR

STARTCHAR hyphen
ENCODING 173
SWIDTH 313 0
DWIDTH 3 0
BBX 2 1 1 2
BITMAP
C0
ENDCHAR

STARTCHAR registered
ENCODING 174
SWIDTH 608 0
DWIDTH 5 0
BBX 5 4 2 2
BITMAP
70
B8
B8
70
ENDCHAR

STARTCHAR macron
ENCODING 175
SWIDTH 560 0
DWIDTH 4 0
BBX 2 1 2 5
BITMAP
C0
ENDCHAR

STARTCHAR degree
ENCODING 176
SWIDTH 277 0
DWIDTH 2 0
BBX 2 2 1 4
BITMAP
C0
C0
ENDCHAR

STARTCHAR plusminus
ENCODING 177
SWIDTH 608 0
DWIDTH 5 0
BBX 5 5 0 0
BITMAP
10
10
78
20
F8
ENDCHAR

STARTCHAR twosuperior
ENCODING 178
SWIDTH 365 0
DWIDTH 3 0
BBX 3 4 -4 2
BITMAP
60
60
80
C0
ENDCHAR

STARTCHAR threesuperior
ENCODING 179
SWIDTH 365 0
DWIDTH 3 0
BBX 3 4 -4 2
BITMAP
60
40
C0
C0
ENDCHAR

STARTCHAR acute
ENCODING 180
SWIDTH 560 0
DWIDTH 4 0
BBX 2 1 3 5
BITMAP
C0
ENDCHAR

STARTCHAR mu
ENCODING 181
SWIDTH 663 0
DWIDTH 5 0
BBX 5 6 1 -2
BITMAP
D8
50
70
70
80
80
ENDCHAR

STARTCHAR paragraph
ENCODING 182
SWIDTH 608 0
DWIDTH 5 0
BBX 3 8 1 -2
BITMAP
E0
E0
E0
60
60
60
60
60
ENDCHAR

STARTCHAR periodcentered
ENCODING 183
SWIDTH 608 0
DWIDTH 5 0
BBX 1 1 2 2
BITMAP
80
ENDCHAR

STARTCHAR cedilla
ENCODING 184
SWIDTH 560 0
DWIDTH 4 0
BBX 1 2 1 -2
BITMAP
80
80
ENDCHAR

STARTCHAR onesuperior
ENCODING 185
SWIDTH 365 0
DWIDTH 3 0
BBX 2 4 -4 2
BITMAP
40
40
40
C0
ENDCHAR

STARTCHAR ordmasculine
ENCODING 186
SWIDTH 458 0
DWIDTH 4 0
BBX 3 3 1 3
BITMAP
60
A0
C0
ENDCHAR

STARTCHAR guillemotright
ENCODING 187
SWIDTH 525 0
DWIDTH 4 0
BBX 4 4 1 0
BITMAP
60
60
70
E0
ENDCHAR

STARTCHAR onequarter
ENCODING 188
SWIDTH 766 0
DWIDTH 6 0
BBX 6 6 1 0
BITMAP
44
4C
58
E8
5C
88
ENDCHAR

STARTCHAR onehalf
ENCODING 189
SWIDTH 766 0
DWIDTH 6 0
BBX 6 6 1 0
BITMAP
44
48
5C
EC
50
98
ENDCHAR

STARTCHAR threequarters
ENCODING 190
SWIDTH 766 0
DWIDTH 6 0
BBX 6 6 1 0
BITMAP
64
4C
D8
E8
5C
88
ENDCHAR

STARTCHAR questiondown
ENCODING 191
SWIDTH 471 0
DWIDTH 4 0
BBX 3 6 0 -2
BITMAP
20
00
20
C0
A0
E0
ENDCHAR

STARTCHAR Agrave
ENCODING 192
SWIDTH 747 0
DWIDTH 6 0
BBX 6 7 0 0
BITMAP
10
10
18
28
68
78
CC
ENDCHAR

STARTCHAR Aacute
ENCODING 193
SWIDTH 747 0
DWIDTH 6 0
BBX 6 7 0 0
BITMAP
0C
10
18
28
68
78
CC
ENDCHAR

STARTCHAR Acircumflex
ENCODING 194
SWIDTH 747 0
DWIDTH 6 0
BBX 6 8 0 0
BITMAP
08
18
14
18
28
68
78
CC
ENDCHAR

STARTCHAR Atilde
ENCODING 195
SWIDTH 747 0
DWIDTH 6 0
BBX 6 7 0 0
BITMAP
1C
10
18
28
68
78
CC
ENDCHAR

STARTCHAR Adieresis
ENCODING 196
SWIDTH 747 0
DWIDTH 6 0
BBX 6 7 0 0
BITMAP
14
10
18
28
68
78
CC
ENDCHAR

STARTCHAR Aring
ENCODING 197
SWIDTH 747 0
DWIDTH 6 0
BBX 6 7 0 0
BITMAP
18
10
18
28
68
78
CC
ENDCHAR

STARTCHAR AE
ENCODING 198
SWIDTH 907 0
DWIDTH 7 0
BBX 8 6 0 0
BITMAP
0F
18
3E
78
48
DE
ENDCHAR

STARTCHAR Ccedilla
ENCODING 199
SWIDTH 714 0
DWIDTH 6 0
BBX 5 8 1 -2
BITMAP
38
48
80
80
80
70
40
40
ENDCHAR

STARTCHAR Egrave
ENCODING 200
SWIDTH 569 0
DWIDTH 5 0
BBX 5 7 0 0
BITMAP
10
78
40
70
40
40
F0
ENDCHAR

STARTCHAR Eacute
ENCODING 201
SWIDTH 569 0
DWIDTH 5 0
BBX 5 7 0 0
BITMAP
10
78
40
70
40
40
F0
ENDCHAR

STARTCHAR Ecircumflex
ENCODING 202
SWIDTH 569 0
DWIDTH 5 0
BBX 5 8 0 0
BITMAP
10
30
78
40
70
40
40
F0
ENDCHAR

STARTCHAR Edieresis
ENCODING 203
SWIDTH 569 0
DWIDTH 5 0
BBX 5 7 0 0
BITMAP
28
78
40
70
40
40
F0
ENDCHAR

STARTCHAR Igrave
ENCODING 204
SWIDTH 325 0
DWIDTH 3 0
BBX 3 7 0 0
BITMAP
20
60
20
40
40
40
C0
ENDCHAR

STARTCHAR Iacute
ENCODING 205
SWIDTH 325 0
DWIDTH 3 0
BBX 4 7 0 0
BITMAP
30
60
20
40
40
40
C0
ENDCHAR

STARTCHAR Icircumflex
ENCODING 206
SWIDTH 325 0
DWIDTH 3 0
BBX 4 8 0 0
BITMAP
20
60
70
20
40
40
40
C0
ENDCHAR

STARTCHAR Idieresis
ENCODING 207
SWIDTH 325 0
DWIDTH 3 0
BBX 4 7 0 0
BITMAP
50
60
20
40
40
40
C0
ENDCHAR

STARTCHAR Eth
ENCODING 208
SWIDTH 770 0
DWIDTH 6 0
BBX 6 6 0 0
BITMAP
7C
24
44
F4
4C
F8
ENDCHAR

STARTCHAR Ntilde
ENCODING 209
SWIDTH 762 0
DWIDTH 6 0
BBX 7 7 0 0
BITMAP
1C
66
24
54
54
48
C8
ENDCHAR

STARTCHAR Ograve
ENCODING 210
SWIDTH 783 0
DWIDTH 6 0
BBX 6 7 1 0
BITMAP
10
38
44
84
84
88
70
ENDCHAR

STARTCHAR Oacute
ENCODING 211
SWIDTH 783 0
DWIDTH 6 0
BBX 6 7 1 0
BITMAP
10
38
44
84
84
88
70
ENDCHAR

STARTCHAR Ocircumflex
ENCODING 212
SWIDTH 783 0
DWIDTH 6 0
BBX 6 8 1 0
BITMAP
10
30
38
44
84
84
88
70
ENDCHAR

STARTCHAR Otilde
ENCODING 213
SWIDTH 783 0
DWIDTH 6 0
BBX 6 7 1 0
BITMAP
38
38
44
84
84
88
70
ENDCHAR

STARTCHAR Odieresis
ENCODING 214
SWIDTH 783 0
DWIDTH 6 0
BBX 6 7 1 0
BITMAP
28
38
44
84
84
88
70
ENDCHAR

STARTCHAR multiply
ENCODING 215
SWIDTH 608 0
DWIDTH 5 0
BBX 6 5 0 0
BITMAP
4C
78
20
50
88
ENDCHAR

STARTCHAR Oslash
ENCODING 216
SWIDTH 783 0
DWIDTH 6 0
BBX 7 6 1 0
BITMAP
3E
4C
94
A4
C8
F0
ENDCHAR

STARTCHAR Ugrave
ENCODING 217
SWIDTH 727 0
DWIDTH 6 0
BBX 6 7 1 0
BITMAP
20
CC
48
88
88
90
E0
ENDCHAR

STARTCHAR Uacute
ENCODING 218
SWIDTH 727 0
DWIDTH 6 0
BBX 6 7 1 0
BITMAP
30
CC
48
88
88
90
E0
ENDCHAR

STARTCHAR Ucircumflex
ENCODING 219
SWIDTH 727 0
DWIDTH 6 0
BBX 6 8 1 0
BITMAP
10
30
CC
48
88
88
90
E0
ENDCHAR

STARTCHAR Udieresis
ENCODING 220
SWIDTH 727 0
DWIDTH 6 0
BBX 6 7 1 0
BITMAP
28
CC
48
88
88
90
E0
ENDCHAR

STARTCHAR Yacute
ENCODING 221
SWIDTH 663 0
DWIDTH 5 0
BBX 5 7 1 0
BITMAP
30
C8
50
60
40
40
E0
ENDCHAR

STARTCHAR Thorn
ENCODING 222
SWIDTH 579 0
DWIDTH 5 0
BBX 5 6 0 0
BITMAP
60
38
48
48
70
C0
ENDCHAR

STARTCHAR germandbls
ENCODING 223
SWIDTH 603 0
DWIDTH 5 0
BBX 4 9 1 -2
BITMAP
30
50
40
60
50
70
B0
80
80
ENDCHAR

STARTCHAR agrave
ENCODING 224
SWIDTH 608 0
DWIDTH 5 0
BBX 4 5 1 0
BITMAP
20
70
90
B0
D0
ENDCHAR

STARTCHAR aacute
ENCODING 225
SWIDTH 608 0
DWIDTH 5 0
BBX 4 5 1 0
BITMAP
20
70
90
B0
D0
ENDCHAR

STARTCHAR acircumflex
ENCODING 226
SWIDTH 608 0
DWIDTH 5 0
BBX 5 6 1 0
BITMAP
10
30
78
90
B0
D0
ENDCHAR

STARTCHAR atilde
ENCODING 227
SWIDTH 608 0
DWIDTH 5 0
BBX 5 5 1 0
BITMAP
38
70
90
B0
D0
ENDCHAR

STARTCHAR adieresis
ENCODING 228
SWIDTH 608 0
DWIDTH 5 0
BBX 5 5 1 0
BITMAP
28
70
90
B0
D0
ENDCHAR

STARTCHAR aring
ENCODING 229
SWIDTH 608 0
DWIDTH 5 0
BBX 4 5 1 0
BITMAP
30
70
90
B0
D0
ENDCHAR

STARTCHAR ae
ENCODING 230
SWIDTH 881 0
DWIDTH 7 0
BBX 6 4 1 0
BITMAP
7C
94
BC
FC
ENDCHAR

STARTCHAR ccedilla
ENCODING 231
SWIDTH 487 0
DWIDTH 4 0
BBX 4 6 1 -2
BITMAP
70
A0
80
E0
80
80
ENDCHAR

STARTCHAR egrave
ENCODING 232
SWIDTH 518 0
DWIDTH 4 0
BBX 4 5 1 0
BITMAP
20
60
A0
F0
E0
ENDCHAR

STARTCHAR eacute
ENCODING 233
SWIDTH 518 0
DWIDTH 4 0
BBX 4 5 1 0
BITMAP
30
60
A0
F0
E0
ENDCHAR

STARTCHAR ecircumflex
ENCODING 234
SWIDTH 518 0
DWIDTH 4 0
BBX 4 6 1 0
BITMAP
20
60
70
A0
F0
E0
ENDCHAR

STARTCHAR edieresis
ENCODING 235
SWIDTH 518 0
DWIDTH 4 0
BBX 5 5 1 0
BITMAP
28
60
A0
F0
E0
ENDCHAR

STARTCHAR igrave
ENCODING 236
SWIDTH 289 0
DWIDTH 2 0
BBX 2 5 1 0
BITMAP
40
C0
80
80
C0
ENDCHAR

STARTCHAR iacute
ENCODING 237
SWIDTH 289 0
DWIDTH 2 0
BBX 3 5 1 0
BITMAP
60
C0
80
80
C0
ENDCHAR

STARTCHAR icircumflex
ENCODING 238
SWIDTH 289 0
DWIDTH 2 0
BBX 3 6 1 0
BITMAP
40
C0
E0
80
80
C0
ENDCHAR

STARTCHAR idieresis
ENCODING 239
SWIDTH 289 0
DWIDTH 2 0
BBX 3 5 1 0
BITMAP
A0
C0
80
80
C0
ENDCHAR

STARTCHAR eth
ENCODING 240
SWIDTH 562 0
DWIDTH 4 0
BBX 4 6 1 0
BITMAP
70
30
70
90
90
E0
ENDCHAR

STARTCHAR ntilde
ENCODING 241
SWIDTH 631 0
DWIDTH 5 0
BBX 5 5 1 0
BITMAP
38
F0
50
D0
90
ENDCHAR

STARTCHAR ograve
ENCODING 242
SWIDTH 560 0
DWIDTH 4 0
BBX 4 5 1 0
BITMAP
20
70
90
90
E0
ENDCHAR

STARTCHAR oacute
ENCODING 243
SWIDTH 560 0
DWIDTH 4 0
BBX 4 5 1 0
BITMAP
20
70
90
90
E0
ENDCHAR

STARTCHAR ocircumflex
ENCODING 244
SWIDTH 560 0
DWIDTH 4 0
BBX 4 6 1 0
BITMAP
20
60
70
90
90
E0
ENDCHAR

STARTCHAR otilde
ENCODING 245
SWIDTH 560 0
DWIDTH 4 0
BBX 5 5 1 0
BITMAP
38
70
90
90
E0
ENDCHAR

STARTCHAR odieresis
ENCODING 246
SWIDTH 560 0
DWIDTH 4 0
BBX 5 5 1 0
BITMAP
28
70
90
90
E0
ENDCHAR

STARTCHAR divide
ENCODING 247
SWIDTH 608 0
DWIDTH 5 0
BBX 5 4 1 0
BITMAP
20
00
F8
20
ENDCHAR

STARTCHAR oslash
ENCODING 248
SWIDTH 560 0
DWIDTH 4 0
BBX 5 4 1 0
BITMAP
78
B0
D0
E0
ENDCHAR

STARTCHAR ugrave
ENCODING 249
SWIDTH 630 0
DWIDTH 5 0
BBX 4 5 1 0
BITMAP
20
D0
90
B0
D0
ENDCHAR

STARTCHAR uacute
ENCODING 250
SWIDTH 630 0
DWIDTH 5 0
BBX 4 5 1 0
BITMAP
30
D0
90
B0
D0
ENDCHAR

STARTCHAR ucircumflex
ENCODING 251
SWIDTH 630 0
DWIDTH 5 0
BBX 5 6 1 0
BITMAP
10
30
D8
90
B0
D0
ENDCHAR

STARTCHAR udieresis
ENCODING 252
SWIDTH 630 0
DWIDTH 5 0
BBX 5 5 1 0
BITMAP
28
D0
90
B0
D0
ENDCHAR

STARTCHAR yacute
ENCODING 253
SWIDTH 558 0
DWIDTH 4 0
BBX 6 7 1 -2
BITMAP
0C
64
24
18
10
30
E0
ENDCHAR

STARTCHAR thorn
ENCODING 254
SWIDTH 608 0
DWIDTH 5 0
BBX 5 7 1 -2
BITMAP
40
78
68
50
60
80
80
ENDCHAR

STARTCHAR ydieresis
ENCODING 255
SWIDTH 558 0
DWIDTH 4 0
BBX 6 7 1 -2
BITMAP
14
64
24
18
10
30
E0
ENDCHAR
ENDFONT
